<?xml version="1.0" encoding="UTF-8"?><svg id="Layer_1" xmlns="http://www.w3.org/2000/svg" viewBox="0 0 333.12 492.18"><path d="M49.24,57.43v179.33s66.62-6.51,66.62-163.42c0,0-45.78,6.39-66.62-15.9Z"/><path d="M49.24,360.27v-80.92s4.54-37.43,82.14-75.1,47.61-124.86,47.61-124.86c0,0,207.55,60-74.17,183.97,0,0,63.86-30.33,103.13-11.94,27.4,12.83,50.91,108.86,50.91,108.86h-73.68s-48.43-87.62-83.81-59.19c-13.99,11.24,8.28,59.19,8.28,59.19h-60.41Z"/><path d="M258.86,102.14c.04.81.09,1.6.09,2.43v-4.3c1.61-19.21,14.11-32.22,33.73-32.7h1.11c-.19,0-.37-.02-.55-.02.19,0,.36-.02.55-.02h-1.11c-19.62-.48-32.12-13.49-33.73-32.7,0-1.4,0-2.83,0-4.3,0,.83-.06,1.62-.09,2.43-.04-.81-.09-1.6-.09-2.43v4.3c-1.61,19.21-14.11,32.22-33.73,32.7h-1.11c.19,0,.37.02.55.02-.19,0-.36.02-.55.02h1.11c19.62.48,32.12,13.49,33.73,32.7v4.3c0-.83.06-1.62.09-2.43Z"/><path d="M230.06,261.16c.16.63.33,1.25.47,1.9l-.72-3.38c-2.07-15.37,4.56-27.47,18.29-30.77l.78-.16c-.13.03-.26.04-.39.06.13-.03.25-.07.39-.1l-.78.16c-13.89,2.54-24.85-5.84-29.19-20.72l-.72-3.38c.14.65.23,1.29.34,1.93-.16-.63-.33-1.25-.47-1.9l.72,3.38c2.07,15.37-4.56,27.47-18.29,30.77l-.78.16c.13-.03.26-.04.39-.06-.13.03-.25.07-.39.1l.78-.16c13.89-2.54,24.86,5.84,29.19,20.72l.72,3.38c-.14-.65-.23-1.29-.34-1.93Z"/><path d="M291.96,116.51c.07.28.15.55.21.83l-.31-1.48c-.91-6.74,2-12.04,8.02-13.49l.34-.07c-.06.01-.11.02-.17.03.06-.01.11-.03.17-.04l-.34.07c-6.09,1.12-10.9-2.56-12.8-9.08l-.31-1.48c.06.29.1.56.15.85-.07-.28-.15-.55-.21-.83l.31,1.48c.91,6.74-2,12.04-8.02,13.49l-.34.07c.06-.01.11-.02.17-.03-.06.01-.11.03-.17.04l.34-.07c6.09-1.12,10.9,2.56,12.8,9.08l.31,1.48c-.06-.29-.1-.56-.15-.85Z"/><path d="M66.4,408.12l-4.44,5.22v16.09h-12.73v-53.35h12.73v20.31l16.59-20.31h15.52l-18.88,22.31,21.17,31.04h-15.59l-14.37-21.31Z"/><path d="M113.03,376.08v41.84h18.02v11.51h-30.75v-53.35h12.73Z"/><path d="M135.49,376.08h30.89v11.23h-18.17v9.8h16.31v10.23h-16.31v10.87h18.74v11.23h-31.47v-53.35Z"/><path d="M173.11,376.08h30.89v11.23h-18.17v9.8h16.31v10.23h-16.31v10.87h18.74v11.23h-31.47v-53.35Z"/><path d="M223.46,397.61v31.82h-12.73v-53.35h12.23l23.17,31.89v-31.89h12.73v53.35h-12.16l-23.24-31.82Z"/></svg>