<?xml version="1.0" encoding="UTF-8"?><svg id="Layer_1" xmlns="http://www.w3.org/2000/svg" viewBox="0 0 524.14 632.3"><path d="M381.92,45.43h-229.74c-48.12,0-87.12,39.01-87.12,87.12v229.74c0,48.12,39.01,87.12,87.12,87.12h229.74c48.12,0,87.12-39.01,87.12-87.12v-229.74c0-48.12-39.01-87.12-87.12-87.12ZM188.93,116.72c16.53,17.69,52.85,12.62,52.85,12.62,0,124.49-52.85,129.66-52.85,129.66V116.72ZM296.78,356.98s-38.42-69.51-66.49-46.96c-11.1,8.92,6.57,46.96,6.57,46.96h-47.93v-64.2s3.6-29.69,65.17-59.58c61.56-29.89,37.77-99.06,37.77-99.06,0,0,163.15,47.17-55.84,144.63,11.29-4.83,52.17-20.62,78.82-8.14,21.74,10.18,40.39,86.36,40.39,86.36h-58.45ZM332.19,277.18c.19.88.37,1.77.57,2.69-.11-.52-.25-1.01-.37-1.51.09.51.16,1.01.27,1.53-.19-.92-.38-1.81-.57-2.69-3.44-11.81-12.14-18.46-23.16-16.44-.22.05-.42.09-.62.13.11-.02.2-.06.31-.08-.11.02-.21.03-.31.05.2-.04.4-.08.62-.13,10.89-2.62,16.15-12.22,14.51-24.42-.19-.88-.37-1.77-.57-2.69.11.52.25,1.01.37,1.51-.09-.51-.16-1.01-.27-1.53.19.92.38,1.81.57,2.69,3.44,11.81,12.14,18.46,23.16,16.44.22-.05.42-.09.62-.13-.11.02-.2.06-.31.08.11-.02.21-.03.31-.05-.2.04-.4.08-.62.13-10.89,2.62-16.15,12.22-14.51,24.42ZM382.94,124.77h-.88c-15.56.38-25.48,10.7-26.76,25.94v3.41c0-.66-.04-1.29-.07-1.93-.03.64-.07,1.27-.07,1.93v-3.41c-1.28-15.24-11.2-25.56-26.76-25.94h-.88c.15,0,.29-.02.44-.02-.15,0-.29-.02-.44-.02h.88c15.56-.38,25.48-10.7,26.76-25.94v-3.41c0,.66.04,1.29.07,1.93.03-.64.07-1.27.07-1.93v3.41c1.28,15.24,11.2,25.56,26.76,25.94h.88c-.15,0-.29.02-.44.02.15,0,.29.02.44.02Z"/><path d="M98.14,528.76l-8.55,10.06v31.01h-24.53v-102.82h24.53v39.14l31.98-39.14h29.91l-36.39,43,40.8,59.82h-30.05l-27.7-41.07Z"/><path d="M188,467.01v80.63h34.73v22.19h-59.26v-102.82h24.53Z"/><path d="M231.29,467.01h59.54v21.64h-35.01v18.88h31.43v19.71h-31.43v20.95h36.11v21.64h-60.64v-102.82Z"/><path d="M303.79,467.01h59.54v21.64h-35.01v18.88h31.43v19.71h-31.43v20.95h36.11v21.64h-60.64v-102.82Z"/><path d="M400.82,508.5v61.33h-24.53v-102.82h23.57l44.65,61.47v-61.47h24.53v102.82h-23.43l-44.79-61.33Z"/></svg>