<?xml version="1.0" encoding="UTF-8"?><svg id="Layer_1" xmlns="http://www.w3.org/2000/svg" viewBox="0 0 863.53 324.86" fill="#0891b2"><path d="M36.87,42.08v147.1s54.65-5.34,54.65-134.06c0,0-37.55,5.24-54.65-13.05Z"/><path d="M36.87,290.5v-66.38s3.73-30.7,67.38-61.61,39.05-102.43,39.05-102.43c0,0,170.25,49.22-60.84,150.92,0,0,52.38-24.88,84.6-9.8,22.48,10.52,41.77,89.3,41.77,89.3h-60.44s-39.73-71.88-68.75-48.56c-11.48,9.22,6.79,48.56,6.79,48.56h-49.56Z"/><path d="M208.82,78.75c.03.66.08,1.32.08,1.99v-3.53c1.32-15.76,11.58-26.43,27.67-26.82h.91c-.16,0-.3-.02-.45-.02.15,0,.3-.02.45-.02h-.91c-16.09-.39-26.35-11.07-27.67-26.82v-3.53c0,.68-.05,1.33-.08,1.99-.03-.66-.08-1.32-.08-1.99,0,1.2,0,2.38,0,3.53-1.32,15.76-11.58,26.43-27.67,26.82h-.91c.16,0,.3.02.45.02-.15,0-.3.02-.45.02h.91c16.09.39,26.35,11.07,27.67,26.82v3.53c0-.68.05-1.33.08-1.99Z"/><path d="M185.19,209.2c.13.52.27,1.03.39,1.56l-.59-2.78c-1.7-12.6,3.74-22.54,15-25.24l.64-.14c-.11.02-.21.03-.32.05.11-.02.21-.06.32-.08l-.64.14c-11.39,2.09-20.39-4.79-23.94-17l-.59-2.78c.11.53.19,1.06.28,1.58-.13-.52-.27-1.03-.39-1.56l.59,2.78c1.7,12.6-3.74,22.54-15,25.24l-.64.14c.11-.02.21-.03.32-.05-.11.02-.21.06-.32.08l.64-.14c11.39-2.09,20.39,4.79,23.94,17l.59,2.78c-.11-.53-.19-1.06-.28-1.58Z"/><path d="M235.97,90.54c.06.23.12.45.17.68l-.26-1.22c-.74-5.53,1.64-9.88,6.58-11.07l.28-.06s-.09.01-.14.02c.05-.01.09-.03.14-.04l-.28.06c-4.99.92-8.94-2.1-10.5-7.45l-.26-1.22c.05.23.08.46.12.69-.06-.23-.12-.45-.17-.68l.26,1.22c.74,5.53-1.64,9.88-6.58,11.07l-.28.06s.09-.01.14-.02c-.05.01-.09.03-.14.04l.28-.06c4.99-.92,8.94,2.1,10.5,7.45l.26,1.22c-.05-.23-.08-.46-.12-.69Z"/><path d="M306.35,186.82l-12.02,14.16v43.62h-34.5V99.97h34.5v55.06l44.98-55.06h42.07l-51.18,60.48,57.38,84.14h-42.26l-38.96-57.77Z"/><path d="M432.75,99.97v113.41h48.86v31.21h-83.36V99.97h34.5Z"/><path d="M493.63,99.97h83.75v30.44h-49.24v26.56h44.2v27.72h-44.2v29.47h50.8v30.44h-85.3V99.97Z"/><path d="M595.61,99.97h83.75v30.44h-49.24v26.56h44.2v27.72h-44.2v29.47h50.8v30.44h-85.3V99.97Z"/><path d="M732.09,158.33v86.27h-34.5V99.97h33.15l62.81,86.46v-86.46h34.51v144.62h-32.96l-63.01-86.27Z"/></svg>